<svg xmlns="http://www.w3.org/2000/svg" width="57" height="50" viewBox="0 0 57 50"><defs><style>.a{isolation:isolate;}.b{fill:#999;}.c{fill:#666;}.d{fill:gray;}.e{fill:lime;}</style></defs><g transform="translate(-936.953 -524.397)"><g class="a"><path class="b" d="M993.953,541.064l-.116,16.667L965.488,574.4l.116-16.667Z"/><path class="c" d="M965.6,557.731l-.116,16.667-28.535-16.667.116-16.667Z"/><path class="d" d="M993.953,541.064,965.6,557.731l-28.535-16.667L965.418,524.4Z"/></g><path class="e" d="M966.687,551.246a.187.187,0,0,1,0,.352l-.587.345a.654.654,0,0,1-.6,0l-5.348-3.123a.185.185,0,0,1,0-.349l.587-.345a.654.654,0,0,1,.6,0l2.08,1.215,4.312-2.535-2.533-3.243-8.372,2.04a3.265,3.265,0,0,1-.352.071,3.632,3.632,0,0,1-2.32-.356,1.5,1.5,0,0,1-.616-.619l-2.455-5.224c-.311-.667.268-1.369,1.348-1.643l18.512-4.23a3.717,3.717,0,0,1,.627-.1,3.477,3.477,0,0,1,1.954.4,1.313,1.313,0,0,1,.677.8l2.154-.491a2.694,2.694,0,0,1,1.85.229,1.172,1.172,0,0,1,.386.345l1.936,2.9c.3.454.019,1.079-.979,1.305l-7.5,1.71-.246.634a1.845,1.845,0,0,1-1.306.948l-3.739.912L969.5,546.7c.149.191.079.4-.17.55l-4.721,2.776ZM956.135,544.7l13.671-3.327a.52.52,0,0,0,.357-.27l2.378-6.132a.253.253,0,0,0-.039-.247.5.5,0,0,0-.152-.131,1.088,1.088,0,0,0-.771-.086l-18.512,4.223c-.415.109-.42.383-.374.483l2.461,5.22a.48.48,0,0,0,.193.183,1.037,1.037,0,0,0,.787.083m20.888-9.564-3.087.679-1.439,3.721,6.437-1.474-1.911-2.925"/></g></svg>