<svg xmlns="http://www.w3.org/2000/svg" width="23.985" height="20.99" viewBox="0 0 23.985 20.99"><defs><style>.a{fill:#fff;}</style></defs><path class="a" d="M1819.517,174.313l-1.684-.729a1.822,1.822,0,0,0-.322-2.584,1.872,1.872,0,0,0-.446-.255l-14.475-6.267a1.913,1.913,0,0,0-2.344.8l-3.644,6.279a1.847,1.847,0,0,0,.709,2.54,1.88,1.88,0,0,0,.271.125l6.668,2.718-1.7,4.456h-4.869v-2.3a.331.331,0,0,0-.333-.328h-.666a.33.33,0,0,0-.333.328v5.9a.33.33,0,0,0,.333.328h.666a.331.331,0,0,0,.333-.328v-2.3h5.329a.665.665,0,0,0,.625-.425l1.843-4.837,2.981,1.215a1.915,1.915,0,0,0,1.647-.17l.743-.457,5.871,2.542a1.377,1.377,0,0,0,1.8-.691l1.694-3.8a1.337,1.337,0,0,0-.7-1.775l-.006,0ZM1809.4,177.38a.549.549,0,0,1-.461.061l-10.864-4.43-.027-.01a.544.544,0,0,1-.291-.788l3.641-6.279a.567.567,0,0,1,.67-.246l14.476,6.267a.546.546,0,0,1,.089.975Zm7.853,2-5.038-2.182,4.389-2.7,2.391,1.066Z" transform="translate(-1796.352 -164.346)"/></svg>