<svg xmlns="http://www.w3.org/2000/svg" width="57" height="50" viewBox="0 0 57 50"><defs><style>.a{isolation:isolate;}.b{fill:#f94646;}.c{fill:#8c040e;}.d{fill:red;}.e{fill:#fff;}</style></defs><g transform="translate(-936.953 -524.397)"><g class="a"><path class="b" d="M993.953,541.064l-.116,16.667L965.488,574.4l.116-16.667Z"/><path class="c" d="M965.6,557.731l-.116,16.667-28.535-16.667.116-16.667Z"/><path class="d" d="M993.953,541.064,965.6,557.731l-28.535-16.667L965.418,524.4Z"/></g><path class="e" d="M965.518,541.2c.295.173.3.454.009.627a1.168,1.168,0,0,1-1.068,0l-4.277-2.5c-.295-.172-.3-.454-.009-.626a1.167,1.167,0,0,1,1.068,0Z"/><path class="e" d="M969.029,532.932l1.052-1.875a.953.953,0,0,1,.958-.278.934.934,0,0,1,.293.107c.2.114.279.286.184.449l-1.058,1.878a.452.452,0,0,1-.178.173,1.182,1.182,0,0,1-.774.109.956.956,0,0,1-.293-.108C969.015,533.271,968.931,533.1,969.029,532.932Z"/><g class="a"><path class="e" d="M973.494,535.883a.33.33,0,0,1,0-.623l3.189-1.875a1.153,1.153,0,0,1,1.063,0,.33.33,0,0,1,0,.623l-3.189,1.875A1.16,1.16,0,0,1,973.494,535.883Z"/><path class="e" d="M977.59,538.216c-.135-.237.08-.484.471-.563l3.2-.627a1.174,1.174,0,0,1,.772.11.5.5,0,0,1,.183.172c.13.232-.08.483-.477.559l-3.2.623a1.138,1.138,0,0,1-.772-.1A.506.506,0,0,1,977.59,538.216Z"/><path class="e" d="M963.392,542.446c.3.172.3.454.01.626a1.179,1.179,0,0,1-1.075,0l-4.276-2.5a.335.335,0,0,1,0-.63,1.169,1.169,0,0,1,1.069,0Z"/><path class="e" d="M961.268,543.695a.336.336,0,0,1,0,.631,1.17,1.17,0,0,1-1.068,0l-4.277-2.5c-.295-.173-.3-.454-.009-.627a1.185,1.185,0,0,1,1.075,0Z"/><path class="e" d="M976.712,540.26a1.325,1.325,0,0,1,.02,2.5L966.1,549.013a4.645,4.645,0,0,1-4.268,0l-10.7-6.249a1.327,1.327,0,0,1-.02-2.5l10.634-6.252a4.66,4.66,0,0,1,4.268,0Zm-11.686,8.127,10.634-6.252a.664.664,0,0,0-.007-1.252l-10.7-6.249a2.336,2.336,0,0,0-2.137,0l-10.634,6.252a.663.663,0,0,0,.013,1.249l10.7,6.248a2.312,2.312,0,0,0,2.131,0"/></g></g></svg>