<svg xmlns="http://www.w3.org/2000/svg" width="56.678" height="73.521" viewBox="0 0 56.678 73.521"><defs><style>.a{isolation:isolate;}.b{fill:#b1b1b1;}.c{fill:#7b7b7b;}.d{fill:#c6c6c6;}.e{fill:#3c3c3c;}.f{fill:#424242;}</style></defs><g transform="translate(-7748.999 -556.79)"><g class="a"><path class="b" d="M7805.677,573.171l-.116,40.758-28.189,16.382.116-40.758Z"/><path class="c" d="M7777.488,589.553l-.116,40.758L7749,613.93l.116-40.758Z"/><path class="d" d="M7805.677,573.171l-28.189,16.382-28.374-16.381L7777.3,556.79Z"/></g><path class="e" d="M7785.779,600.055a7.219,7.219,0,0,1-2.377,2.989l-.36-.659a4.907,4.907,0,0,0,2.229-3.374v-.36l1-.575v.36c0,.873.758,1.414,2.24.793l-.348,1.069C7787.015,600.759,7786.2,600.622,7785.779,600.055Z"/><path class="e" d="M7787.991,609.051c.945-.546,1.65-.21,1.653.831a3.379,3.379,0,0,1-1.642,2.749c-.952.549-1.662.217-1.665-.839A3.388,3.388,0,0,1,7787.991,609.051Zm.008,2.7a1.58,1.58,0,0,0,.758-1.356c0-.565-.322-.726-.763-.471a1.6,1.6,0,0,0-.763,1.359c0,.572.328.722.768.468"/><path class="e" d="M7788.445,606.525l0,.976,1.417-.818,0,.858-3.8,2.193,0-.858,1.449-.837,0-.976Z"/><path class="e" d="M7782.829,603.926l5.9-3.406,0,.873-2.5,1.445.007,2.56-.938.542-.007-2.56-2.458,1.419Z"/><path class="e" d="M7793.818,593.5l.938-.542.013,4.519-.938.542Z"/><path class="e" d="M7792.639,608.3l5.912-3.413,0,.858-2.509,1.448.006,2.333-.938.542-.007-2.333-2.464,1.423Z"/><path class="e" d="M7797.837,601.257l.01,3.324-4.54,2.621-.009-3.324.932-.538,0,.858,2.688-1.552,0-.858Zm-.912,3,0-.777-2.688,1.552,0,.777,2.688-1.552"/><path class="e" d="M7790.329,601.234l0-.858,4.444-2.565.007,2.656-.938.542,0-1.8Z"/><path class="e" d="M7791.419,597.688a6.039,6.039,0,0,1-1.566,2.513l-.481-.567a4.69,4.69,0,0,0,1.558-3.17l-1.316.759,0-.851,3.55-2.049,0,.851-1.289.744a1.171,1.171,0,0,0,1.538,1.265l-.47,1.1A1.317,1.317,0,0,1,7791.419,597.688Z"/><path class="e" d="M7801.073,589.741v.675a16.8,16.8,0,0,1-.152,2.608l.855-.494,0,.866-2.509,1.449.008,3.015-.951.549-.009-3.015-2.438,1.408,0-.866,4.112-2.373a14.413,14.413,0,0,0,.172-2.429l-3.614,2.086,0-.866Z"/><path class="e" d="M7791.237,607.721l.932-.538,0,.888-.932.538.01,3.683-.938.542-.021-7.505.939-.542Z"/><path class="f" d="M7767.943,572.993a7.1,7.1,0,0,1-3.764.56c.284.649,0,1.43-.961,2.186l-1.109-.229c1.274-.977,1.173-1.894.407-2.337l-.313-.18.99-.575.313.18a4.925,4.925,0,0,0,4.033-.243Z"/><path class="f" d="M7789.914,568.834l-.862.5,1.251.723-.926.538-3.25-1.876.926-.538,1.239.715.863-.5Z"/><g class="a"><path class="f" d="M7782.31,565.613l-2.493,1.449,2.624,1.514-.945.55-2.624-1.515-2.423,1.408-.754-.435,4.085-2.374a11.379,11.379,0,0,0-1.853-1.276l-3.59,2.087-.747-.431,4.5-2.614.587.339a14.046,14.046,0,0,1,2.032,1.357l.85-.494Z"/><path class="f" d="M7770.5,567.946l.933-.542,3.933,2.271-.932.542Z"/><path class="f" d="M7770.553,570.744a1.32,1.32,0,0,1-.162,1.714l-1.211-.147c.721-.811.367-1.567-.425-2.046l-1.306.759-.734-.424,3.533-2.053.734.424-1.288.748a4.585,4.585,0,0,0,3.4.2l.245.686A5.946,5.946,0,0,1,7770.553,570.744Z"/><path class="f" d="M7787.79,570.261l.817.369a15.61,15.61,0,0,1-2.777,1.872l-.539.314-2.771-1.6,2.9-1.685.735.424-1.979,1.15,1.3.749A14.025,14.025,0,0,0,7787.79,570.261Z"/><path class="f" d="M7775.664,569.845l2.312,1.335-.933.542-1.571-.907-3.482,2.024-.74-.428Z"/><path class="f" d="M7767.26,574.825l2.228,1.287-.932.542-2.229-1.287-2.442,1.419-.76-.439,5.861-3.406.76.439Z"/><path class="f" d="M7787.135,574.85l-5.874,3.413-.759-.439,2.467-1.434-1.366-.789-1.783,1.036-3.218-1.858,4.516-2.625.753.435-3.578,2.079,1.718.992,3.628-2.109.747.431-1.858,1.08,1.367.789,2.48-1.441Z"/><path class="f" d="M7780.647,578.769l-3.134,1.821-.843-.487,1.117-.648-3.18-1.836-.939.545-.645-.372a2.6,2.6,0,0,0,.771-.958l.768-.446,4.265,2.462.977-.568Z"/><path class="f" d="M7774.982,582.061l-1.355-.995-.881.512,1.348,1-.615.357-1.355-.995-.6.35-.671-.387.685-.4-.856-.626-.641.372-.683-.4.729-.424-1.188-.892.6-.346,1.2.884.888-.516-1.188-.892.609-.353,1.2.884.634-.368.684.394-.717.417.85.63.672-.391.671.387-.749.435,1.355.995Zm-2.837-.911.888-.516-.85-.63-.888.516.85.63"/></g><path class="f" d="M7792.97,571.378l.734.424-4.465,2.6-1.826-1.054,3.362-1.954-.383-.221-3.368,1.957-.734-.424,4.282-2.488,1.8,1.04-3.349,1.946.409.236Z"/></g></svg>