<svg xmlns="http://www.w3.org/2000/svg" width="56.678" height="73.521" viewBox="0 0 56.678 73.521"><defs><style>.a{isolation:isolate;}.b{fill:#b1b1b1;}.c{fill:#7b7b7b;}.d{fill:#c6c6c6;}.e{fill:#3c3c3c;}.f{fill:#424242;}</style></defs><g transform="translate(-7521.007 -425.207)"><g class="a"><path class="b" d="M7577.685,441.589l-.115,40.758-28.189,16.382.115-40.758Z"/><path class="c" d="M7549.5,457.97l-.115,40.758-28.374-16.381.115-40.758Z"/><path class="d" d="M7577.685,441.589,7549.5,457.97l-28.374-16.381,28.189-16.382Z"/></g><path class="e" d="M7557.783,468.476a7.16,7.16,0,0,1-2.377,2.989l-.353-.663a4.883,4.883,0,0,0,2.222-3.37v-.36l1-.578v.359c0,.866.758,1.414,2.24.793l-.355,1.073C7559.026,469.177,7558.207,469.04,7557.783,468.476Z"/><path class="e" d="M7562.615,478.634l0-.7.932-.538.008,3.059-4.341,2.507-.008-3.06.932-.538,0,.705Zm0,1.5,0-.675-2.477,1.43,0,.675,2.477-1.43"/><path class="e" d="M7561.757,476.139a3.527,3.527,0,0,1-1.77,2.8c-1.009.582-1.777.284-1.78-.751a3.536,3.536,0,0,1,1.77-2.793C7560.992,474.809,7561.754,475.112,7561.757,476.139Zm-2.637,1.522c0,.565.373.674.865.39a1.657,1.657,0,0,0,.859-1.385c0-.543-.366-.67-.864-.383a1.687,1.687,0,0,0-.86,1.378"/><path class="e" d="M7554.833,472.347l5.9-3.406,0,.873-2.5,1.445.007,2.56-.932.538-.007-2.56-2.464,1.423Z"/><path class="e" d="M7565.822,461.916l.945-.546.013,4.519-.945.546Z"/><path class="e" d="M7563.43,466.105a6.075,6.075,0,0,1-1.573,2.517l-.475-.571a4.667,4.667,0,0,0,1.552-3.173l-1.309.755,0-.844,3.549-2.049,0,.844-1.29.744a1.176,1.176,0,0,0,1.538,1.273l-.476,1.1A1.3,1.3,0,0,1,7563.43,466.105Z"/><path class="e" d="M7569.848,469.821l0,.675a16.32,16.32,0,0,1-.159,2.613l.856-.494,0,.865-2.509,1.449.009,3.015-.945.546-.009-3.016-2.439,1.409,0-.866,4.112-2.374a14.963,14.963,0,0,0,.165-2.425l-3.613,2.086,0-.866Z"/><path class="e" d="M7562.34,469.644l0-.851,4.444-2.566.007,2.656-.945.546,0-1.8Z"/><path class="e" d="M7573.083,458.158l0,.675a16.345,16.345,0,0,1-.159,2.612l.862-.5,0,.865-2.509,1.449.009,3.015-.952.55-.008-3.016-2.439,1.408,0-.865L7572,461.98a15.141,15.141,0,0,0,.173-2.436l-3.62,2.09,0-.859Z"/><path class="e" d="M7562.587,473.58l.945-.546.012,4.035-.945.546Z"/><path class="f" d="M7539.946,441.413a7.116,7.116,0,0,1-3.757.564c.277.645,0,1.426-.968,2.182l-1.1-.225c1.273-.984,1.166-1.9.4-2.341l-.313-.18,1-.579.313.181a4.939,4.939,0,0,0,4.034-.236Z"/><g class="a"><path class="f" d="M7547.674,438.261l2.311,1.334-.938.546-1.564-.9L7544,441.261l-.747-.431Z"/><path class="f" d="M7539.27,443.248l2.222,1.283-.933.542-2.222-1.283-2.442,1.419-.76-.439,5.861-3.406.76.439Z"/><path class="f" d="M7559.151,443.27l-5.88,3.417-.766-.442,2.467-1.434-1.36-.785-1.782,1.036-3.218-1.858,4.517-2.625.753.435-3.578,2.079,1.711.988,3.628-2.109.753.435-1.852,1.076,1.36.785,2.48-1.441Z"/><path class="f" d="M7546.991,450.484l-1.354-.995-.882.512,1.348,1-.609.354-1.361-.991-.6.35-.67-.387.685-.4-.85-.631-.641.373-.683-.4.723-.42-1.189-.892.6-.346,1.207.88.888-.516-1.2-.888.609-.354,1.2.885.634-.369.683.395-.717.416.85.631.679-.395.67.387-.755.439,1.355.995Zm-2.836-.91.888-.516-.85-.631-.889.516.851.631"/></g><path class="f" d="M7559.793,438.681l.829.369a15.752,15.752,0,0,1-2.783,1.869l-.545.317-2.765-1.6,2.905-1.689.734.424-1.985,1.154,1.3.748A13.336,13.336,0,0,0,7559.793,438.681Z"/><g class="a"><path class="f" d="M7554.313,434.033l-2.493,1.448,2.624,1.515-.945.55-2.624-1.515-2.423,1.408-.747-.432,4.085-2.373a11.4,11.4,0,0,0-1.853-1.276l-3.59,2.087-.754-.435,4.5-2.614.587.339a14.055,14.055,0,0,1,2.038,1.36l.85-.494Z"/><path class="f" d="M7542.508,436.366l.939-.546,3.939,2.274-.938.546Z"/><path class="f" d="M7542.562,439.168a1.322,1.322,0,0,1-.168,1.71l-1.2-.144c.721-.811.373-1.57-.425-2.046l-1.307.76-.734-.424,3.533-2.053.734.424-1.281.744a4.516,4.516,0,0,0,3.393.2l.239.689A5.881,5.881,0,0,1,7542.562,439.168Z"/></g><path class="f" d="M7552.656,447.192l-3.134,1.821-.842-.486,1.122-.653-3.185-1.839-.946.549-.645-.372a2.373,2.373,0,0,0,.771-.958l.768-.446,4.271,2.466.977-.568Z"/><path class="f" d="M7561.923,437.258l-.856.5,1.245.719-.933.542-3.244-1.873.933-.542,1.239.715.856-.5Z"/><path class="f" d="M7564.986,439.8l.728.42-4.465,2.6-1.82-1.051,3.356-1.95-.383-.221-3.368,1.957-.741-.428,4.288-2.492,1.807,1.043-3.355,1.95.409.236Z"/></g></svg>