<svg xmlns="http://www.w3.org/2000/svg" width="56.679" height="73.521" viewBox="0 0 56.679 73.521"><defs><style>.a{isolation:isolate;}.b{fill:#b1b1b1;}.c{fill:#7b7b7b;}.d{fill:#c6c6c6;}.e{fill:#3c3c3c;}.f{fill:#424242;}</style></defs><g transform="translate(-8661.018 232.945)"><g class="a"><path class="b" d="M8717.7-216.564l-.116,40.758-28.188,16.382.115-40.758Z"/><path class="c" d="M8689.507-200.182l-.115,40.758-28.374-16.381.116-40.758Z"/><path class="d" d="M8717.7-216.564l-28.189,16.382-28.373-16.381,28.188-16.382Z"/></g><path class="e" d="M8701.768-182.015a3.526,3.526,0,0,1-1.77,2.8c-1.015.586-1.784.288-1.787-.747a3.54,3.54,0,0,1,1.777-2.8C8701-183.345,8701.765-183.042,8701.768-182.015Zm-2.637,1.522c0,.565.367.678.865.39a1.649,1.649,0,0,0,.853-1.382c0-.542-.36-.673-.857-.386a1.679,1.679,0,0,0-.86,1.378"/><path class="e" d="M8694.844-185.807l5.9-3.406,0,.873-2.5,1.445.007,2.56-.938.542-.007-2.56-2.458,1.419Z"/><path class="e" d="M8697.794-189.678a7.2,7.2,0,0,1-2.377,2.989l-.36-.659a4.894,4.894,0,0,0,2.229-3.374v-.359l1-.579v.359c0,.866.758,1.414,2.234.8l-.349,1.069C8699.03-188.974,8698.217-189.114,8697.794-189.678Z"/><path class="e" d="M8703.434-192.045a5.923,5.923,0,0,1-1.565,2.506l-.481-.56a4.667,4.667,0,0,0,1.558-3.177l-1.315.759,0-.844,3.556-2.053,0,.844-1.288.744a1.165,1.165,0,0,0,1.537,1.265l-.476,1.106A1.318,1.318,0,0,1,8703.434-192.045Z"/><path class="e" d="M8709.852-188.329l0,.675a16.794,16.794,0,0,1-.151,2.609l.855-.494,0,.865-2.509,1.449.008,3.015-.95.549-.009-3.015-2.439,1.408,0-.865,4.11-2.374a14.4,14.4,0,0,0,.174-2.429l-3.614,2.086,0-.865Z"/><path class="e" d="M8702.345-188.506l0-.851,4.45-2.569.007,2.656-.944.546-.006-1.8Z"/><path class="e" d="M8705.833-196.237l.945-.546.013,4.519-.945.546Z"/><path class="e" d="M8713.088-199.992v.675a16.858,16.858,0,0,1-.152,2.609l.855-.494,0,.865-2.51,1.449.009,3.008-.945.546-.009-3.008-2.443,1.411,0-.866L8712-196.17a14.4,14.4,0,0,0,.172-2.437l-3.613,2.087,0-.859Z"/><path class="e" d="M8702.6-184.574l.938-.542.012,4.035-.939.542Z"/><path class="e" d="M8702.625-179.519l0-.705.926-.534.009,3.059-4.335,2.5-.009-3.059.926-.535,0,.7Zm0,1.5,0-.675-2.483,1.434,0,.675,2.482-1.434"/><path class="f" d="M8679.275-214.907l2.228,1.286-.926.538-2.229-1.286-2.448,1.423-.754-.435,5.861-3.406.754.435Z"/><path class="f" d="M8687-207.668l-1.354-.995-.875.509,1.348,1-.615.357-1.354-.995-.608.354-.677-.391.685-.4-.85-.63-.641.372-.677-.39.724-.421-1.2-.9.6-.346,1.214.885.889-.516-1.2-.893.608-.353,1.209.888.635-.369.677.391-.717.417.849.63.679-.4.678.391-.756.439,1.355.995Zm-2.837-.918.888-.516-.855-.626-.889.516.856.626"/><path class="f" d="M8691.334-211.789c.938.542.643,1.342-.346,1.917a4.587,4.587,0,0,1-2.479.6l-.169-.663a3.525,3.525,0,0,0,1.7-.365c.526-.306.632-.664.191-.918-.49-.284-1.1-.284-2.231.372l-.753-.435c.958-.556.942-.918.5-1.172a1.306,1.306,0,0,0-1.329.041.942.942,0,0,0-.511.844l-1.165-.063a1.638,1.638,0,0,1,.909-1.283,3.1,3.1,0,0,1,3.066-.191c.556.32.614.729.286,1.172l.038.022A2.864,2.864,0,0,1,8691.334-211.789Z"/><path class="f" d="M8705-218.354l.728.42-4.466,2.6-1.819-1.05,3.362-1.954-.384-.221-3.368,1.957-.74-.428,4.281-2.488,1.8,1.04-3.355,1.95.415.24Z"/><path class="f" d="M8701.936-220.894l-.856.5,1.245.719-.933.542-3.25-1.876.933-.542,1.245.719.856-.5Z"/><g class="a"><path class="f" d="M8694.331-224.123l-2.5,1.452,2.624,1.516-.939.545-2.624-1.515-2.423,1.408-.753-.435,4.085-2.374a11.9,11.9,0,0,0-1.853-1.268l-3.59,2.087-.753-.435,4.5-2.617.588.339a13.4,13.4,0,0,1,2.024,1.36l.856-.5Z"/><path class="f" d="M8682.521-221.786l.938-.546,3.939,2.274-.939.546Z"/><path class="f" d="M8682.574-218.991a1.332,1.332,0,0,1-.168,1.717l-1.2-.147c.709-.811.36-1.571-.431-2.042l-1.3.755-.739-.427,3.525-2.05.741.428-1.281.744a4.54,4.54,0,0,0,3.394.2l.24.689A5.836,5.836,0,0,1,8682.574-218.991Z"/><path class="f" d="M8699.8-219.471l.823.365a15.555,15.555,0,0,1-2.777,1.873l-.546.317-2.764-1.6,2.905-1.689.728.42-1.979,1.151,1.3.748A13.485,13.485,0,0,0,8699.8-219.471Z"/><path class="f" d="M8687.686-219.891l2.312,1.334-.939.546-1.564-.9-3.482,2.024-.746-.431Z"/><path class="f" d="M8699.162-214.882l-5.873,3.413-.767-.442,2.461-1.43-1.359-.785-1.783,1.036-3.224-1.861,4.517-2.625.753.435-3.577,2.079,1.718.992,3.628-2.109.753.435-1.853,1.076,1.36.785,2.48-1.441Z"/></g><path class="f" d="M8679.959-216.739a7.138,7.138,0,0,1-3.765.56c.29.645,0,1.427-.961,2.186l-1.1-.232c1.274-.977,1.167-1.891.4-2.334l-.312-.18,1-.579.313.181a4.924,4.924,0,0,0,4.032-.244Z"/></g></svg>