<svg xmlns="http://www.w3.org/2000/svg" width="56.678" height="73.521" viewBox="0 0 56.678 73.521"><defs><style>.a{isolation:isolate;}.b{fill:#b1b1b1;}.c{fill:#7b7b7b;}.d{fill:#c6c6c6;}.e{fill:#3c3c3c;}.f{fill:#424242;}</style></defs><g transform="translate(-8889.02 101.311)"><g class="a"><path class="b" d="M8945.7-84.929l-.115,40.758-28.189,16.382.115-40.758Z"/><path class="c" d="M8917.508-68.547l-.115,40.758L8889.02-44.171l.115-40.758Z"/><path class="d" d="M8945.7-84.929l-28.189,16.382-28.373-16.381,28.188-16.382Z"/></g><path class="e" d="M8928.465-51.574l0,.976,1.417-.818,0,.858-3.8,2.193,0-.858,1.449-.837,0-.976Z"/><path class="e" d="M8922.842-54.17l5.9-3.406,0,.873-2.5,1.442.008,2.56-.938.542-.008-2.56-2.464,1.423Z"/><path class="e" d="M8925.8-58.045a7.224,7.224,0,0,1-2.382,2.992l-.354-.662a4.9,4.9,0,0,0,2.229-3.374v-.359l1-.576v.36c0,.866.759,1.414,2.241.793l-.35,1.069C8927.035-57.341,8926.216-57.477,8925.8-58.045Z"/><path class="e" d="M8931.439-60.412a6.08,6.08,0,0,1-1.573,2.517l-.475-.571a4.649,4.649,0,0,0,1.552-3.174l-1.31.756,0-.844,3.55-2.049,0,.844-1.29.744a1.175,1.175,0,0,0,1.538,1.272l-.47,1.1A1.307,1.307,0,0,1,8931.439-60.412Z"/><path class="e" d="M8937.856-56.842l.01,3.323-4.539,2.621-.01-3.324.932-.538,0,.859,2.688-1.552,0-.859Zm-.912,2.995,0-.77-2.688,1.552,0,.77,2.688-1.552"/><g class="a"><path class="e" d="M8930.349-56.873l0-.851,4.443-2.565.008,2.656-.939.542,0-1.8Z"/><path class="e" d="M8933.838-64.6l.938-.542.013,4.519-.938.542Z"/></g><path class="e" d="M8941.092-68.359l0,.675a16.982,16.982,0,0,1-.152,2.609l.855-.494,0,.865-2.509,1.449.008,3.015-.951.549-.008-3.015L8935.9-61.3l0-.866,4.11-2.373a14.294,14.294,0,0,0,.172-2.437l-3.612,2.087,0-.859Z"/><path class="e" d="M8931.25-50.375l.938-.542,0,.888-.937.542.01,3.683-.933.538-.021-7.505.932-.538Z"/><path class="e" d="M8928.011-49.049c.945-.546,1.65-.21,1.653.831a3.38,3.38,0,0,1-1.643,2.749c-.951.549-1.662.217-1.665-.839A3.386,3.386,0,0,1,8928.011-49.049Zm.008,2.7a1.579,1.579,0,0,0,.758-1.356c0-.565-.322-.733-.764-.479a1.613,1.613,0,0,0-.763,1.367c0,.572.328.722.769.468"/><path class="e" d="M8932.658-49.8l5.912-3.413,0,.851-2.509,1.449.007,2.34-.938.542-.007-2.34-2.465,1.423Z"/><g class="a"><path class="f" d="M8929.935-89.264l-.856.5,1.252.723-.933.542-3.25-1.876.933-.542,1.238.715.856-.5Z"/><path class="f" d="M8927.811-87.837l.823.365a15.716,15.716,0,0,1-2.783,1.869l-.546.317-2.764-1.6,2.905-1.688.733.423L8924.2-87l1.3.748A13.967,13.967,0,0,0,8927.811-87.837Z"/><path class="f" d="M8933-86.723l.734.424-4.466,2.6-1.825-1.054,3.355-1.95-.384-.221-3.361,1.954-.734-.424,4.281-2.488,1.8,1.04-3.355,1.95.409.236Z"/></g><path class="f" d="M8922.331-92.485l-2.493,1.448,2.624,1.516-.938.545-2.624-1.515-2.424,1.408-.753-.435,4.085-2.374a11.9,11.9,0,0,0-1.859-1.271l-3.59,2.086-.747-.431,4.5-2.617.588.339a13.409,13.409,0,0,1,2.023,1.36l.851-.494Z"/><g class="a"><path class="f" d="M8910.58-87.357a1.32,1.32,0,0,1-.175,1.714l-1.2-.148c.715-.807.367-1.566-.432-2.042l-1.307.759-.734-.424,3.532-2.053.735.424-1.282.745a4.514,4.514,0,0,0,3.394.2l.246.693A5.886,5.886,0,0,1,8910.58-87.357Z"/><path class="f" d="M8915.691-88.257,8918-86.923l-.939.546-1.57-.907-3.482,2.024-.74-.428Z"/><path class="f" d="M8907.964-85.105a7.135,7.135,0,0,1-3.764.56c.29.645,0,1.427-.961,2.186l-1.1-.232c1.273-.977,1.166-1.891.4-2.334l-.313-.18,1-.579.313.181a4.943,4.943,0,0,0,4.034-.243Z"/><path class="f" d="M8907.281-83.273l2.228,1.286-.933.542-2.228-1.286-2.442,1.419-.76-.439,5.861-3.406.76.439Z"/><path class="f" d="M8927.162-83.251l-5.874,3.413-.766-.442,2.461-1.43-1.36-.785-1.782,1.036-3.218-1.858,4.517-2.625.753.435-3.577,2.079,1.711.988,3.629-2.109.753.435-1.853,1.076,1.36.785,2.479-1.441Z"/><path class="f" d="M8919.339-80.155c.933.538.645,1.342-.345,1.917a4.564,4.564,0,0,1-2.485.594l-.169-.664a3.49,3.49,0,0,0,1.7-.361c.526-.306.632-.664.192-.918-.5-.287-1.109-.288-2.245.372l-.746-.431c.957-.557.949-.922.508-1.176a1.307,1.307,0,0,0-1.329.041.948.948,0,0,0-.517.84L8912.741-80a1.634,1.634,0,0,1,.909-1.282,3.107,3.107,0,0,1,3.065-.192c.556.321.615.73.293,1.176l.032.018A2.879,2.879,0,0,1,8919.339-80.155Z"/></g><path class="f" d="M8910.526-90.152l.938-.546,3.933,2.271-.938.546Z"/><path class="f" d="M8915-76.037l-1.354-1-.883.513,1.35,1-.609.354-1.354-1-.609.354-.67-.386.685-.4-.85-.63-.64.372-.685-.394.725-.42-1.19-.893.6-.346,1.208.881.889-.516-1.2-.889.609-.353,1.2.885.636-.369.683.394-.717.417.85.63.68-.394.67.387-.756.438,1.354.995Zm-2.837-.91.888-.517-.85-.63-.888.516.85.631"/></g></svg>