<svg xmlns="http://www.w3.org/2000/svg" width="19.697" height="19.697" viewBox="0 0 19.697 19.697"><defs><style>.a{fill:#fff;}</style></defs><path class="a" d="M1720.964,123.577l.008-.594a.689.689,0,0,0-.7-.7l-7.032.12,16.014-16.014a.713.713,0,0,0,.014-1.008l-.414-.414a.713.713,0,0,0-1.008.014l-16.014,16.014.12-7.031a.689.689,0,0,0-.7-.7l-.595.008a.738.738,0,0,0-.723.723l-.158,9.767a.689.689,0,0,0,.7.7l9.767-.159A.738.738,0,0,0,1720.964,123.577Z" transform="translate(-1709.771 -104.762)"/></svg>