<svg xmlns="http://www.w3.org/2000/svg" width="24" height="21" viewBox="0 0 24 21"><defs><style>.a{fill:#fff;}</style></defs><path class="a" d="M1744.246,167.97a.342.342,0,0,0,.468,0,10.41,10.41,0,0,1,13.9,0,.342.342,0,0,0,.468,0l.48-.465a.324.324,0,0,0,.006-.464l-.01-.01a11.8,11.8,0,0,0-15.79,0,.325.325,0,0,0-.015.464l.01.01Zm7.419.623a7.538,7.538,0,0,0-5.016,1.878.324.324,0,0,0-.02.464l.014.014.48.464a.346.346,0,0,0,.468.005,6.247,6.247,0,0,1,8.151,0,.346.346,0,0,0,.468-.005l.479-.464a.325.325,0,0,0,.008-.464l-.014-.013A7.538,7.538,0,0,0,1751.666,168.593Zm7.333,8.531h-6.667v-3.609a.33.33,0,0,0-.333-.328h-.667a.33.33,0,0,0-.333.328v3.609h-12a1.984,1.984,0,0,0-2,1.969v3.938a1.984,1.984,0,0,0,2,1.969h20a1.985,1.985,0,0,0,2-1.969h0v-3.938A1.984,1.984,0,0,0,1759,177.124Zm.667,5.906a.662.662,0,0,1-.667.656h-20a.662.662,0,0,1-.667-.656v-3.938a.662.662,0,0,1,.667-.656h20a.662.662,0,0,1,.667.656Zm-15-2.953a.985.985,0,1,0,1,.984A.992.992,0,0,0,1744.666,180.078Zm-3.333,0a.985.985,0,1,0,1,.984A.992.992,0,0,0,1741.332,180.078Z" transform="translate(-1736.999 -163.999)"/></svg>