<svg xmlns="http://www.w3.org/2000/svg" width="57" height="50" viewBox="0 0 57 50"><defs><style>.a{isolation:isolate;}.b{fill:#999;}.c{fill:#666;}.d{fill:gray;}.e{fill:lime;}</style></defs><g transform="translate(-936.953 -524.397)"><g class="a"><path class="b" d="M993.953,541.064l-.116,16.667L965.488,574.4l.116-16.667Z"/><path class="c" d="M965.6,557.731l-.116,16.667-28.535-16.667.116-16.667Z"/><path class="d" d="M993.953,541.064,965.6,557.731l-28.535-16.667L965.418,524.4Z"/></g><path class="e" d="M967.932,545.57a.552.552,0,0,1,.006,1.042,1.934,1.934,0,0,1-1.779,0,.551.551,0,0,1,0-1.039A1.929,1.929,0,0,1,967.932,545.57Z"/><g class="a"><path class="e" d="M967.964,531.652c0,.135-.185.244-.408.247a17.982,17.982,0,0,0-8.576,2.213c-2.31,1.358-3.63,3.136-3.742,5.029-.012.135-.191.24-.421.24l-.845.008a.639.639,0,0,1-.3-.073.2.2,0,0,1-.121-.182c.129-2.153,1.621-4.174,4.244-5.716a20.421,20.421,0,0,1,9.746-2.509.638.638,0,0,1,.309.073.206.206,0,0,1,.121.178Z"/><path class="e" d="M968.533,534.974c-.005.131-.178.24-.4.244-3.9.145-6.991,1.965-7.228,4.249-.006.131-.2.236-.421.24l-.838,0a.6.6,0,0,1-.3-.07.215.215,0,0,1-.127-.189,4.925,4.925,0,0,1,2.738-3.6,13.144,13.144,0,0,1,6.148-1.62.625.625,0,0,1,.317.072.219.219,0,0,1,.126.178Z"/><path class="e" d="M964.979,547.305a.553.553,0,0,1,.005,1.043,1.934,1.934,0,0,1-1.779,0,.551.551,0,0,1,0-1.039A1.934,1.934,0,0,1,964.979,547.305Z"/><path class="e" d="M983.3,538.627a1.1,1.1,0,0,1,.018,2.082L965.6,551.128a3.885,3.885,0,0,1-3.559,0l-3.563-2.082a1.107,1.107,0,0,1-.012-2.086l10.634-6.252-3.268-1.909c-.166-.1-.174-.251-.008-.349l.587-.345a.654.654,0,0,1,.6,0l3.268,1.909,5.907-3.472a3.868,3.868,0,0,1,3.552,0Zm-18.892,11.807,17.722-10.419c.325-.191.317-.5-.01-.694l-3.564-2.082a1.293,1.293,0,0,0-1.184,0l-17.722,10.418a.371.371,0,0,0,0,.7l3.564,2.082a1.305,1.305,0,0,0,1.19,0"/></g></g></svg>