<svg xmlns="http://www.w3.org/2000/svg" width="57" height="74" viewBox="0 0 57 74"><defs><style>.a{isolation:isolate;}.b{fill:#b1b1b1;}.c{fill:#7b7b7b;}.d{fill:#c6c6c6;}.e{fill:#3c3c3c;}.f{fill:#0061a2;}</style></defs><g transform="translate(-1021.023 -435.185)"><g class="a"><path class="b" d="M1078.023,451.673l-.116,41.024-28.349,16.488.116-41.024Z"/><path class="c" d="M1049.674,468.162l-.116,41.024L1021.023,492.7l.116-41.024Z"/><path class="d" d="M1078.023,451.673l-28.349,16.488-28.535-16.488,28.349-16.488Z"/></g><path class="e" d="M1061.19,487.908a4.246,4.246,0,0,1-2.132,3.384c-1.22.706-2.147.346-2.151-.909a4.273,4.273,0,0,1,2.139-3.374C1060.272,486.3,1061.187,486.667,1061.19,487.908Zm-3.178,1.837c0,.679.445.821,1.043.477a2,2,0,0,0,1.031-1.676c0-.657-.433-.815-1.037-.466a2.029,2.029,0,0,0-1.037,1.665"/><path class="e" d="M1052.835,483.327l7.121-4.115,0,1.056-3.018,1.744.009,3.087-1.13.653-.009-3.087-2.973,1.718Z"/><path class="e" d="M1056.4,478.65a8.645,8.645,0,0,1-2.871,3.612l-.427-.8a5.911,5.911,0,0,0,2.689-4.076v-.436l1.2-.693v.436c0,1.056.918,1.71,2.7.959l-.42,1.293C1057.892,479.5,1056.908,479.332,1056.4,478.65Z"/><path class="e" d="M1070.957,480.274l0,.819a19.88,19.88,0,0,1-.19,3.157l1.034-.6,0,1.041-3.031,1.751.01,3.641-1.142.66-.01-3.641-2.948,1.7,0-1.041,4.964-2.869a17.688,17.688,0,0,0,.21-2.946l-4.367,2.522,0-1.041Z"/><path class="e" d="M1061.894,480.067l0-1.034,5.361-3.1.009,3.2-1.137.657-.006-2.171Z"/><path class="e" d="M1066.1,470.722l1.136-.657.016,5.464-1.136.657Z"/><path class="e" d="M1063.207,475.788a7.209,7.209,0,0,1-1.895,3.033l-.575-.681a5.626,5.626,0,0,0,1.874-3.834l-1.579.913,0-1.02,4.283-2.475,0,1.02-1.554.9a1.414,1.414,0,0,0,1.856,1.531l-.574,1.331A1.585,1.585,0,0,1,1063.207,475.788Z"/><path class="e" d="M1074.859,466.185l0,.819a19.886,19.886,0,0,1-.191,3.157l1.041-.6,0,1.042-3.031,1.75.01,3.641-1.15.664-.01-3.641-2.941,1.7,0-1.042,4.963-2.868a18.072,18.072,0,0,0,.2-2.943l-4.366,2.522,0-1.041Z"/><path class="e" d="M1062.228,490.917l0-.848,1.124-.649.01,3.692-5.24,3.028-.01-3.693,1.123-.649,0,.85Zm.005,1.81,0-.812-2.993,1.729,0,.812,2.992-1.729"/><path class="e" d="M1062.2,484.811l1.137-.657.014,4.874-1.136.657Z"/><path class="f" d="M1047.332,456.388l-3.783,2.2-1.014-.586,1.346-.783L1040.034,455l-1.135.66-.777-.449a3.077,3.077,0,0,0,.934-1.153l.925-.538,5.149,2.975,1.187-.689Z"/><path class="f" d="M1052.878,450.348l-3.011,1.751,3.166,1.829-1.135.66-3.166-1.829-2.927,1.7-.905-.523,4.931-2.868a13.736,13.736,0,0,0-2.236-1.536l-4.332,2.519-.912-.527,5.429-3.157.713.412a16.95,16.95,0,0,1,2.454,1.641l1.027-.6Z"/><path class="f" d="M1053.547,445.179c2.138,1.236,2.307,2.849.66,4.6l-1.371-.245c1.26-1.291,1.311-2.385.391-3.124l-2.551,1.485-.9-.519Z"/><g class="a"><path class="f" d="M1060.7,446.871l-1.123.653-5.638-3.258,1.123-.653,2.2,1.269,1.046-.608.925.534-1.046.608Z"/><path class="f" d="M1062.18,447.409l.9.519-5.32,3.094-2.671-1.543,1.123-.653,1.772,1.024Z"/></g></g></svg>