<svg xmlns="http://www.w3.org/2000/svg" width="57" height="74" viewBox="0 0 57 74"><defs><style>.a{isolation:isolate;}.b{fill:#b1b1b1;}.c{fill:#7b7b7b;}.d{fill:#c6c6c6;}.e{fill:#3c3c3c;}.f{fill:#008f46;}</style></defs><g transform="translate(-935.344 -506.517)"><g class="a"><path class="b" d="M992.344,523l-.116,41.024-28.349,16.488.116-41.024Z"/><path class="c" d="M963.994,539.493l-.116,41.024-28.535-16.488L935.46,523Z"/><path class="d" d="M992.344,523l-28.349,16.488L935.46,523l28.349-16.488Z"/></g><path class="e" d="M971.018,549.923a8.691,8.691,0,0,1-2.871,3.611l-.433-.8a5.914,5.914,0,0,0,2.69-4.076v-.429l1.207-.7v.429c0,1.056.912,1.714,2.7.959l-.427,1.3C972.512,550.776,971.521,550.608,971.018,549.923Z"/><path class="e" d="M974.236,557.738l0,1.181,1.708-.987,0,1.034-4.585,2.649,0-1.034,1.746-1.009,0-1.181Z"/><path class="e" d="M967.455,554.6l7.121-4.115,0,1.056-3.024,1.747.009,3.087-1.13.653-.009-3.087-2.967,1.714Z"/><path class="e" d="M980.713,542.006l1.143-.66.015,5.457-1.143.66Z"/><path class="e" d="M985.57,551.373l.011,4.018-5.477,3.165-.011-4.017,1.123-.649,0,1.034,3.242-1.874,0-1.034Zm-1.1,3.625,0-.938-3.242,1.874,0,.938L984.467,555"/><path class="e" d="M976.507,551.344l0-1.034,5.368-3.1.009,3.2-1.143.66-.006-2.171Z"/><path class="e" d="M977.827,547.061a7.359,7.359,0,0,1-1.9,3.04l-.574-.688a5.672,5.672,0,0,0,1.874-3.834l-1.586.916,0-1.019L979.931,543l0,1.02-1.56.9a1.416,1.416,0,0,0,1.856,1.531l-.569,1.328A1.575,1.575,0,0,1,977.827,547.061Z"/><path class="e" d="M989.473,537.462l0,.819a20.556,20.556,0,0,1-.184,3.153l1.034-.6,0,1.041L987.3,543.63l.011,3.641-1.143.66-.01-3.641-2.948,1.7,0-1.041,4.964-2.869a17.686,17.686,0,0,0,.21-2.947l-4.367,2.523,0-1.041Z"/><path class="e" d="M977.6,559.183l1.13-.653,0,1.078-1.13.653.013,4.445-1.13.653-.026-9.06,1.13-.653Z"/><path class="e" d="M973.685,560.785c1.143-.66,1.987-.253,1.99,1.01a4.066,4.066,0,0,1-1.977,3.318c-1.143.66-2.006.265-2.01-1.014A4.1,4.1,0,0,1,973.685,560.785Zm.01,3.264a1.915,1.915,0,0,0,.915-1.639c0-.679-.389-.878-.922-.57a1.944,1.944,0,0,0-.921,1.642c0,.688.4.871.928.567"/><path class="e" d="M979.3,559.88l7.134-4.122,0,1.034-3.031,1.751.008,2.821-1.13.653-.008-2.821-2.973,1.718Z"/><path class="f" d="M961.945,527.737l-4.216,2.453-.726-.42c.066-1.862.072-3.116-.846-3.647a1.916,1.916,0,0,0-1.946-.03,1,1,0,0,0-.494,1.054h-1.369a1.671,1.671,0,0,1,1.033-1.717,3.978,3.978,0,0,1,3.91-.041c1.079.623,1.2,1.84,1.26,3.175.273-.2.663-.467.956-.638l1.378-.8Z"/><path class="f" d="M967.39,521.756l-3,1.747,3.165,1.83-1.141.664-3.166-1.83-2.921,1.7-.905-.523,4.931-2.869a14.326,14.326,0,0,0-2.242-1.539l-4.339,2.522-.905-.522,5.435-3.161.713.412a16.338,16.338,0,0,1,2.448,1.644l1.027-.6Z"/><path class="f" d="M976.7,518.814l.893.516-5.327,3.1-2.665-1.54,1.123-.653,1.772,1.024Z"/><path class="f" d="M975.217,518.276l-1.123.653-5.644-3.261,1.123-.653,2.2,1.273,1.046-.608.925.534-1.046.609Z"/><path class="f" d="M968.053,516.584c2.144,1.239,2.313,2.852.659,4.6l-1.364-.249c1.266-1.287,1.317-2.382.391-3.124l-2.551,1.485-.9-.519Z"/></g></svg>