<svg xmlns="http://www.w3.org/2000/svg" width="57" height="74" viewBox="0 0 57 74"><defs><style>.a{isolation:isolate;}.b{fill:#b1b1b1;}.c{fill:#7b7b7b;}.d{fill:#c6c6c6;}.e{fill:#3c3c3c;}.f{fill:#008f46;}</style></defs><g transform="translate(-935.491 -506.517)"><g class="a"><path class="b" d="M992.491,523l-.116,41.024-28.349,16.488.116-41.024Z"/><path class="c" d="M964.142,539.493l-.116,41.024-28.535-16.488L935.608,523Z"/><path class="d" d="M992.491,523l-28.349,16.488L935.608,523l28.349-16.488Z"/></g><path class="e" d="M970.866,549.98A8.638,8.638,0,0,1,968,553.589l-.433-.793a5.941,5.941,0,0,0,2.69-4.076v-.436l1.207-.7v.436c0,1.049.912,1.707,2.7.963l-.42,1.286C972.361,550.833,971.377,550.662,970.866,549.98Z"/><path class="e" d="M967.31,554.661l7.114-4.111,0,1.049-3.018,1.744.009,3.094-1.13.653L970.279,554l-2.966,1.714Z"/><path class="e" d="M977.675,547.118a7.28,7.28,0,0,1-1.889,3.037l-.58-.677a5.634,5.634,0,0,0,1.874-3.834l-1.58.913,0-1.027,4.289-2.479,0,1.027-1.56.9a1.414,1.414,0,0,0,1.857,1.531l-.569,1.32A1.566,1.566,0,0,1,977.675,547.118Z"/><path class="e" d="M985.425,551.612l0,.812a19.856,19.856,0,0,1-.191,3.157l1.034-.6,0,1.041-3.024,1.747.01,3.641-1.15.664-.01-3.641-2.941,1.7,0-1.041,4.957-2.865a17.545,17.545,0,0,0,.21-2.939l-4.367,2.522,0-1.041Z"/><g class="a"><path class="e" d="M976.363,551.4l0-1.034,5.361-3.1.009,3.212-1.137.657-.006-2.178Z"/><path class="e" d="M980.568,542.059l1.137-.657.015,5.464-1.137.657Z"/></g><path class="e" d="M989.328,537.523l0,.812a19.946,19.946,0,0,1-.19,3.157l1.04-.6,0,1.041-3.031,1.751.011,3.641-1.15.664L986,544.348l-2.941,1.7,0-1.041,4.964-2.869a17.5,17.5,0,0,0,.2-2.935l-4.361,2.518,0-1.041Z"/><path class="e" d="M976.7,562.255l0-.849,1.123-.649.01,3.692-5.24,3.028-.01-3.693,1.123-.649,0,.849Zm.005,1.81,0-.82-2.992,1.729,0,.82,2.992-1.729"/><path class="e" d="M976.665,556.148l1.137-.657.014,4.874-1.137.657Z"/><path class="e" d="M975.665,559.241a4.262,4.262,0,0,1-2.139,3.381c-1.22.7-2.147.345-2.15-.9a4.27,4.27,0,0,1,2.138-3.374C974.741,557.638,975.661,558,975.665,559.241Zm-3.185,1.841c0,.679.447.814,1.043.469a2,2,0,0,0,1.038-1.672c0-.664-.441-.811-1.044-.462a2.02,2.02,0,0,0-1.037,1.665"/><path class="f" d="M977.071,518.223l.9.519-5.32,3.094-2.671-1.543,1.123-.653,1.772,1.024Z"/><path class="f" d="M968.438,515.994c2.138,1.235,2.313,2.853.653,4.6l-1.365-.249c1.26-1.291,1.318-2.382.392-3.124l-2.551,1.484-.9-.519Z"/><path class="f" d="M967.769,521.162l-3.011,1.751,3.166,1.829-1.135.66-3.166-1.829-2.929,1.7-.905-.523,4.932-2.868a13.815,13.815,0,0,0-2.237-1.537l-4.331,2.519-.905-.522,5.429-3.157.706.408a16.88,16.88,0,0,1,2.455,1.64l1.027-.6Z"/><path class="f" d="M962.331,527.147l-4.216,2.452-.732-.423c.066-1.862.065-3.113-.847-3.64a1.9,1.9,0,0,0-1.945-.03,1.007,1.007,0,0,0-.5,1.051l-1.364,0a1.684,1.684,0,0,1,1.028-1.721,3.989,3.989,0,0,1,3.91-.041c1.078.624,1.2,1.841,1.259,3.177.287-.2.663-.468.962-.642l1.379-.8Z"/><path class="f" d="M975.59,517.685l-1.123.653-5.638-3.258,1.123-.653,2.2,1.269,1.046-.608.925.534-1.046.608Z"/></g></svg>