<svg xmlns="http://www.w3.org/2000/svg" width="27" height="18" viewBox="0 0 27 18"><defs><style>.a{fill:#fff;}</style></defs><path class="a" d="M1877.274,170.5a.7.7,0,0,0,.3-.068l2.7-1.286a.629.629,0,0,0,.3-.863.692.692,0,0,0-.906-.288h0l-2.7,1.286a.629.629,0,0,0-.3.863A.678.678,0,0,0,1877.274,170.5Zm4.05,3.857h-4.05a.644.644,0,1,0,0,1.286h4.05a.644.644,0,1,0,0-1.286ZM1871.2,166h-13.5a2.638,2.638,0,0,0-2.7,2.572v12.857a2.638,2.638,0,0,0,2.7,2.572h13.5a2.638,2.638,0,0,0,2.7-2.572V168.571A2.638,2.638,0,0,0,1871.2,166Zm1.35,15.429a1.319,1.319,0,0,1-1.35,1.286h-13.5a1.319,1.319,0,0,1-1.35-1.286V168.571a1.319,1.319,0,0,1,1.35-1.286h13.5a1.319,1.319,0,0,1,1.35,1.286Zm-12.825-11.572a.66.66,0,0,0-.675.643v5.143a.676.676,0,0,0,1.35,0V170.5A.66.66,0,0,0,1859.724,169.857Zm2.7,0a.66.66,0,0,0-.675.643v5.143a.676.676,0,0,0,1.35,0V170.5A.66.66,0,0,0,1862.424,169.857Zm2.7,0a.66.66,0,0,0-.675.643v5.143a.676.676,0,0,0,1.35,0V170.5A.66.66,0,0,0,1865.124,169.857Zm15.152,11-2.7-1.286a.691.691,0,0,0-.906.288.628.628,0,0,0,.3.863l2.7,1.286a.692.692,0,0,0,.906-.287.63.63,0,0,0-.3-.863Z" transform="translate(-1854.999 -166)"/></svg>