<svg xmlns="http://www.w3.org/2000/svg" width="24" height="14.999" viewBox="0 0 24 14.999"><defs><style>.a{fill:#fff;}</style></defs><path class="a" d="M1623.033,168.389l-.472-.45a.349.349,0,0,0-.471-.005l-.01.009a10.433,10.433,0,0,0,0,14.8.349.349,0,0,0,.471.013l.01-.009.472-.45a.3.3,0,0,0,0-.439,9.206,9.206,0,0,1,0-13.033A.3.3,0,0,0,1623.033,168.389Zm3.5,2.695-.471-.449a.349.349,0,0,0-.472-.007l-.014.013a6.747,6.747,0,0,0,0,9.4.349.349,0,0,0,.471.018l.014-.012.471-.449a.306.306,0,0,0,.006-.438,5.519,5.519,0,0,1,0-7.642.306.306,0,0,0-.006-.435Zm13.39-3.141a.349.349,0,0,0-.471-.014l-.011.01-.473.45a.3.3,0,0,0,0,.439,9.2,9.2,0,0,1,0,13.033.3.3,0,0,0,0,.439l.473.45a.349.349,0,0,0,.471.006l.011-.01a10.435,10.435,0,0,0,0-14.8Zm-8.921,4.9a2.5,2.5,0,1,0,2.667,2.5A2.587,2.587,0,0,0,1631,172.844Zm0,3.75a1.253,1.253,0,1,1,1.334-1.25A1.294,1.294,0,0,1,1631,176.594Zm4.941-5.958-.471.451a.306.306,0,0,0-.006.438,5.518,5.518,0,0,1,0,7.642.307.307,0,0,0,.006.438l.471.449a.349.349,0,0,0,.471.007l.014-.013a6.747,6.747,0,0,0,0-9.4.349.349,0,0,0-.471-.02l-.014.013Z" transform="translate(-1618.999 -167.844)"/></svg>