<svg xmlns="http://www.w3.org/2000/svg" width="114" height="101" viewBox="0 0 114 101"><defs><style>.a{isolation:isolate;}.b{fill:#f4a338;}.c{fill:#e27f1b;}.d{fill:#f4bd73;}.e{fill:#fff;}</style></defs><g transform="translate(-908.651 -493.802)"><g class="a"><path class="b" d="M1022.651,510.314l-.116,35.1L937.191,594.8l.116-35.1Z"/><path class="c" d="M937.307,559.706l-.116,35.1-28.54-16.512.116-35.1Z"/><path class="d" d="M1022.651,510.314l-85.343,49.392-28.541-16.512L994.11,493.8Z"/></g><path class="e" d="M976.291,549.1l.006,2.167-1.856,1.074.027,9.569-2.139,1.237-.027-9.569-1.888,1.092-.006-2.167Z"/><path class="e" d="M983.3,551.591a2.677,2.677,0,0,1,.365,1.573,5.685,5.685,0,0,1-.828,2.983,6.226,6.226,0,0,1-2.284,2.248l-3.114,1.8-.033-11.735,2.8-1.621q3.265-1.888,3.277,1.015a5.031,5.031,0,0,1-.362,1.913,3.775,3.775,0,0,1-.986,1.467v.082A1.046,1.046,0,0,1,983.3,551.591Zm-2.926,4.811a2.27,2.27,0,0,0,1.081-2.151c0-.481-.106-.791-.3-.927s-.483-.1-.843.11l-.712.412.008,3,.771-.446m-.792-7.156.007,2.626.63-.364a2.138,2.138,0,0,0,1.062-2.015c0-.821-.37-1.016-1.1-.592l-.6.345"/><path class="e" d="M994.6,538.511l.033,11.736-2.068,1.2-.016-5.643c0-.754.021-1.656.076-2.71l-.058.033-1.89,9.412-1.651.955-1.911-7.212-.058.033c.04.517.067,1,.089,1.438s.021.847.022,1.2l.016,5.605-2.03,1.174L985.122,544l2.986-1.728,1.762,6.565.044-.026,1.732-8.586Z"/></g></svg>