<svg xmlns="http://www.w3.org/2000/svg" width="57" height="50" viewBox="0 0 57 50"><defs><style>.a{opacity:0.4;}.b{isolation:isolate;}.c{fill:#b1b1b1;}.d{fill:#7b7b7b;}.e{fill:#c6c6c6;}.f{fill:#333;}</style></defs><g class="a" transform="translate(-936.953 -524.397)"><g class="b"><path class="c" d="M993.953,541.064l-.116,16.667L965.488,574.4l.116-16.667Z"/><path class="d" d="M965.6,557.731l-.116,16.667-28.535-16.667.116-16.667Z"/><path class="e" d="M993.953,541.064,965.6,557.731l-28.535-16.667L965.418,524.4Z"/></g><path class="f" d="M970.277,542.742a.6.6,0,0,1,.006,1.125,2.1,2.1,0,0,1-1.916,0,.6.6,0,0,1-.006-1.119A2.1,2.1,0,0,1,970.277,542.742Z"/><path class="f" d="M967.849,541.786a.251.251,0,0,1-.013.468l-.309.181a.884.884,0,0,1-.8.009l-6-3.224-.019-.01a.252.252,0,0,1,0-.475l.784-.462a.88.88,0,0,1,.811,0l.018.01Z"/><path class="f" d="M973.929,536.1c4.69,2.739,4.714,7.181.05,9.923s-12.24,2.74-16.93,0-4.719-7.184-.06-9.923S969.24,533.364,973.929,536.1Zm-15.79,9.283a16.078,16.078,0,0,0,14.744,0c4.066-2.391,4.04-6.258-.043-8.643a16.092,16.092,0,0,0-14.754,0c-4.061,2.388-4.03,6.258.053,8.643"/></g></svg>