<svg xmlns="http://www.w3.org/2000/svg" width="24" height="15.999" viewBox="0 0 24 15.999"><defs><style>.a{fill:#fff;}</style></defs><path class="a" d="M1690.342,178.844a1.144,1.144,0,1,1-1.2,1.143,1.174,1.174,0,0,1,1.2-1.143m0-1.714a2.86,2.86,0,1,0,3,2.857A2.931,2.931,0,0,0,1690.342,177.129Zm7.676-1.137a.416.416,0,0,0-.022-.612,11.792,11.792,0,0,0-15.308,0,.416.416,0,0,0-.022.612l.618.62a.462.462,0,0,0,.624.021,9.949,9.949,0,0,1,12.87,0,.461.461,0,0,0,.623-.021l.618-.62Zm4.178-4.785a18.283,18.283,0,0,0-23.708,0,.407.407,0,0,0-.022.605l.622.614a.47.47,0,0,0,.631.019,16.4,16.4,0,0,1,21.245,0,.47.47,0,0,0,.63-.019l.622-.614a.407.407,0,0,0-.022-.605Z" transform="translate(-1678.342 -166.844)"/></svg>