<svg xmlns="http://www.w3.org/2000/svg" width="57" height="50" viewBox="0 0 57 50"><defs><style>.a{isolation:isolate;}.b{fill:#f94646;}.c{fill:#8c040e;}.d{fill:red;}.e{fill:#fff;}</style></defs><g transform="translate(-936.953 -524.397)"><g class="a"><path class="b" d="M993.953,541.064l-.116,16.667L965.488,574.4l.116-16.667Z"/><path class="c" d="M965.6,557.731l-.116,16.667-28.535-16.667.116-16.667Z"/><path class="d" d="M993.953,541.064,965.6,557.731l-28.535-16.667L965.418,524.4Z"/></g><path class="e" d="M972.978,542.206c1.476.862,1.49,2.261.024,3.123a5.816,5.816,0,0,1-5.338,0c-1.476-.863-1.491-2.262-.017-3.128A5.814,5.814,0,0,1,972.978,542.206Zm-3.719,2.186a2.337,2.337,0,0,0,2.137,0,.664.664,0,0,0-.013-1.249,2.336,2.336,0,0,0-2.131,0,.665.665,0,0,0,.007,1.253"/><path class="e" d="M973.416,538.245c.007.176-.228.33-.536.338-6.187.183-11.112,3.079-11.4,6.7-.011.18-.273.318-.574.315l-1.132-.019a.777.777,0,0,1-.38-.1.293.293,0,0,1-.172-.249c.328-4.324,6.2-7.774,13.568-7.977a.838.838,0,0,1,.426.1.288.288,0,0,1,.165.222Z"/><path class="e" d="M972.67,534.109c-10.188.27-18.4,5.1-18.825,11.067-.011.18-.266.323-.573.315l-1.127-.008a.789.789,0,0,1-.385-.1.266.266,0,0,1-.16-.245c.469-6.657,9.628-12.057,21.007-12.35a.794.794,0,0,1,.419.094.292.292,0,0,1,.165.225l.016.66C973.22,533.951,972.978,534.1,972.67,534.109Z"/></g></svg>