<svg xmlns="http://www.w3.org/2000/svg" width="57" height="50" viewBox="0 0 57 50"><defs><style>.a{isolation:isolate;}.b{fill:#999;}.c{fill:#666;}.d{fill:gray;}.e{fill:lime;}</style></defs><g transform="translate(-936.953 -524.397)"><g class="a"><path class="b" d="M993.953,541.064l-.116,16.667L965.488,574.4l.116-16.667Z"/><path class="c" d="M965.6,557.731l-.116,16.667-28.535-16.667.116-16.667Z"/><path class="d" d="M993.953,541.064,965.6,557.731l-28.535-16.667L965.418,524.4Z"/></g><path class="e" d="M975.083,540.506c-.012.151-.2.259-.427.259l-.846-.008a.586.586,0,0,1-.3-.071.233.233,0,0,1-.128-.169,4.142,4.142,0,0,0-2.271-2.924,10.856,10.856,0,0,0-5-1.321.6.6,0,0,1-.287-.073.215.215,0,0,1-.125-.175l-.015-.495c.012-.151.209-.251.439-.251A13.33,13.33,0,0,1,972.3,536.9,5.052,5.052,0,0,1,975.083,540.506Z"/><g class="a"><path class="e" d="M966.229,532.21c.006-.146.2-.25.427-.25a20.589,20.589,0,0,1,9.774,2.509c2.639,1.541,4.16,3.566,4.306,5.715,0,.151-.19.255-.42.255l-.852,0a.593.593,0,0,1-.287-.072.237.237,0,0,1-.131-.171c-.138-1.89-1.472-3.672-3.8-5.029a18.172,18.172,0,0,0-8.6-2.213.61.61,0,0,1-.291-.074.221.221,0,0,1-.127-.17Z"/><path class="e" d="M968.172,542.108a5.16,5.16,0,0,1-4.736,0c-1.316-.768-1.323-2.006-.016-2.774a5.15,5.15,0,0,1,4.737,0C969.467,540.1,969.48,541.339,968.172,542.108Zm-3.563-2.081a.736.736,0,0,0,.007,1.387,2.587,2.587,0,0,0,2.368,0,.736.736,0,0,0-.008-1.387,2.585,2.585,0,0,0-2.367,0"/><path class="e" d="M958.081,540.757a.227.227,0,0,1,.126.166,4.15,4.15,0,0,0,2.273,2.92,10.881,10.881,0,0,0,5,1.325.6.6,0,0,1,.286.073.214.214,0,0,1,.125.175l.009.491c-.011.15-.2.254-.433.247a13.29,13.29,0,0,1-6.166-1.617,5.038,5.038,0,0,1-2.779-3.608c0-.15.191-.255.421-.255l.845.008A.63.63,0,0,1,958.081,540.757Z"/></g><path class="e" d="M965.365,549.23c-.006.145-.2.25-.435.247a20.542,20.542,0,0,1-9.767-2.5c-2.639-1.542-4.161-3.567-4.313-5.72.005-.146.19-.255.427-.251h.845a.611.611,0,0,1,.29.074.225.225,0,0,1,.128.17c.145,1.893,1.485,3.671,3.81,5.029a18.112,18.112,0,0,0,8.588,2.213.619.619,0,0,1,.293.075.22.22,0,0,1,.125.168Z"/></g></svg>