<svg xmlns="http://www.w3.org/2000/svg" width="57" height="50" viewBox="0 0 57 50"><defs><style>.a{isolation:isolate;}.b{fill:#f94646;}.c{fill:#8c040e;}.d{fill:red;}.e{fill:#fff;}</style></defs><g transform="translate(-936.953 -524.397)"><g class="a"><path class="b" d="M993.953,541.064l-.116,16.667L965.488,574.4l.116-16.667Z"/><path class="c" d="M965.6,557.731l-.116,16.667-28.535-16.667.116-16.667Z"/><path class="d" d="M993.953,541.064,965.6,557.731l-28.535-16.667L965.418,524.4Z"/></g><path class="e" d="M974.995,540.147c-.012.15-.2.258-.427.258l-.845-.007a.6.6,0,0,1-.3-.071.232.232,0,0,1-.127-.169,4.147,4.147,0,0,0-2.271-2.925,10.876,10.876,0,0,0-5-1.321.6.6,0,0,1-.286-.072.219.219,0,0,1-.126-.175l-.015-.5c.012-.15.21-.251.44-.251a13.345,13.345,0,0,1,6.167,1.623A5.052,5.052,0,0,1,974.995,540.147Z"/><g class="a"><path class="e" d="M966.142,531.851c.006-.147.2-.251.427-.251a20.585,20.585,0,0,1,9.774,2.509c2.639,1.541,4.161,3.566,4.307,5.716,0,.15-.191.254-.421.254l-.851,0a.6.6,0,0,1-.288-.073.238.238,0,0,1-.13-.171c-.139-1.89-1.473-3.672-3.8-5.029a18.178,18.178,0,0,0-8.6-2.213.608.608,0,0,1-.29-.074.225.225,0,0,1-.128-.17Z"/><path class="e" d="M968.085,541.748a5.163,5.163,0,0,1-4.736,0c-1.316-.769-1.323-2.006-.015-2.775a5.148,5.148,0,0,1,4.736,0C969.379,539.738,969.393,540.979,968.085,541.748Zm-3.563-2.082a.736.736,0,0,0,.008,1.388,2.585,2.585,0,0,0,2.367,0,.737.737,0,0,0-.007-1.388,2.588,2.588,0,0,0-2.368,0"/><path class="e" d="M957.994,540.4a.232.232,0,0,1,.127.166,4.142,4.142,0,0,0,2.273,2.92,10.885,10.885,0,0,0,5,1.326.591.591,0,0,1,.286.072.217.217,0,0,1,.126.175l.009.491c-.012.15-.2.255-.435.247a13.3,13.3,0,0,1-6.166-1.616,5.036,5.036,0,0,1-2.778-3.609c0-.15.19-.254.42-.254l.845.007A.623.623,0,0,1,957.994,540.4Z"/></g><path class="e" d="M965.277,548.87c-.006.146-.2.251-.433.247a20.531,20.531,0,0,1-9.768-2.5c-2.639-1.541-4.161-3.567-4.313-5.72.006-.146.19-.254.427-.251h.845a.611.611,0,0,1,.29.074.225.225,0,0,1,.128.17c.145,1.894,1.486,3.672,3.81,5.029a18.106,18.106,0,0,0,8.589,2.213.637.637,0,0,1,.293.075.222.222,0,0,1,.125.169Z"/></g></svg>