<svg xmlns="http://www.w3.org/2000/svg" width="60" height="45" viewBox="0 0 60 45"><defs><style>.a{fill:#7c7c7c;}</style></defs><path class="a" d="M789.374,553h-48.75A5.625,5.625,0,0,0,735,558.625v33.75A5.625,5.625,0,0,0,740.625,598h48.75A5.625,5.625,0,0,0,795,592.375v-33.75A5.625,5.625,0,0,0,789.374,553Zm-.7,39.375H741.328a.7.7,0,0,1-.7-.7V559.328a.7.7,0,0,1,.7-.7h47.343a.7.7,0,0,1,.7.7v32.344A.7.7,0,0,1,788.671,592.375ZM750,563.312A4.687,4.687,0,1,0,754.687,568,4.687,4.687,0,0,0,750,563.312Zm-3.75,23.437h37.5v-9.375l-10.256-10.255a1.406,1.406,0,0,0-1.989,0L757.5,581.125l-4.63-4.63a1.406,1.406,0,0,0-1.989,0l-4.631,4.63Z" transform="translate(-734.999 -553)"/></svg>